<?xml version="1.0" encoding="UTF-8"?> <!-- Generator: Adobe Illustrator 16.0.0, SVG Export Plug-In . SVG Version: 6.00 Build 0) --> <svg xmlns="http://www.w3.org/2000/svg" xmlns:xlink="http://www.w3.org/1999/xlink" id="Layer_1" x="0px" y="0px" width="412.897px" height="372.332px" viewBox="0 0 412.897 372.332" xml:space="preserve"> <g> <g> <g> <path fill="#C4C4C4" d="M377.652,342.818c0,2.462-1.996,4.458-4.457,4.458l-333.493,0.001c-2.461,0-4.458-1.997-4.458-4.459 V132.378c0-2.462,1.997-4.458,4.458-4.458h333.493c2.461,0,4.457,1.995,4.457,4.458V342.818z"></path> <path fill="#E6E6E6" d="M374.994,131.203c0,1.142-0.926,2.067-2.069,2.067H39.971c-1.142,0-2.066-0.926-2.066-2.067l0,0 c0-1.142,0.925-2.067,2.066-2.067l332.954-0.001C374.068,129.134,374.994,130.061,374.994,131.203L374.994,131.203z"></path> <rect x="53.076" y="145.754" fill="#0072B8" width="306.744" height="183.688"></rect> <path fill="#D1DBE8" d="M345.4,221.378c-17.986,0-32.621,14.323-33.145,32.186c-1.617-0.34-3.292-0.522-5.01-0.522 c-4.911,0-9.48,1.466-13.299,3.977c-5.831-4.54-13.157-7.25-21.119-7.25c-15.346,0-28.342,10.048-32.779,23.924 c-4.395-2.699-9.564-4.257-15.101-4.257c-3.726,0-7.285,0.714-10.556,1.998c-6.48-10.148-17.836-16.885-30.77-16.885 c-6.178,0-11.991,1.542-17.091,4.251c-9.25-8.107-21.361-13.033-34.628-13.033c-4.92,0-9.674,0.69-14.19,1.953 c-2.878-8.875-11.205-15.298-21.042-15.298c-0.018,0-0.035,0.003-0.055,0.003c0.033-0.605,0.055-1.214,0.055-1.827 c0-17.95-14.551-32.501-32.501-32.501c-3.896,0-7.632,0.688-11.095,1.943v61.113v68.29h36.44h84.767H359.82v-45.014v-59.761 C355.459,222.562,350.569,221.378,345.4,221.378z"></path> <polygon fill="#D1DBE8" points="281.855,137.919 266.671,128.203 159.426,262.182 205.141,291.434 "></polygon> <path fill="#FFFFFF" d="M351.133,253.453c-16.199,0-29.756,11.271-33.284,26.395c-3.987-6.285-11.001-10.46-18.993-10.46 c-11.543,0-21.051,8.702-22.328,19.903c-2.52-0.063-5.024,0.481-7.285,1.597c-0.562-6.955-3.918-13.609-9.686-18.176 c2.051-1.25,3.863-2.958,5.245-5.116c4.851-7.58,2.638-17.655-4.942-22.505c-7.578-4.852-17.655-2.64-22.506,4.941 c-0.586,0.913-1.057,1.867-1.439,2.839c-3.159-1.847-6.824-2.925-10.748-2.925c-0.682,0-1.354,0.039-2.018,0.102 c1.744-9.088-2.051-18.731-10.32-24.022c-10.119-6.476-23.351-4.144-30.707,5.02c-0.039-0.025-0.072-0.055-0.111-0.08 c-4.479-2.866-9.822-3.249-14.45-1.532c-1.508-5.063-4.764-9.632-9.562-12.701c-10.616-6.795-24.728-3.695-31.523,6.922 c-5.761,9.006-4.382,20.513,2.644,27.949c-5.755,3.753-10.166,9.393-12.357,16.042c-5.504-5.331-13-8.62-21.27-8.62 c-2.325,0-4.587,0.269-6.763,0.76c-3.956-12.848-15.918-22.186-30.063-22.186c-1.908,0-3.772,0.18-5.588,0.504V300v29.442H359.82 v-8.736V254.57C357.045,253.842,354.134,253.453,351.133,253.453z"></path> <path fill="#8C8C8C" d="M283.254,166.47c26.16-5.008,51.857-7.817,76.566-8.61v-12.106l-306.744,0.001v152.589 C88.924,239.393,175.582,187.083,283.254,166.47z"></path> <g> <polygon fill="#FFFFFF" points="258.086,162.865 253.98,160.237 167.406,267.289 197.16,286.328 "></polygon> <g> <path fill="#FF452A" d="M284.909,145.576c-0.962-3.145-4.616-8.656-10.646-12.515c-6.029-3.857-12.564-4.867-15.824-4.422 c-3.258,0.444-8.074-0.361-13.689,8.33c-5.616,8.69-5.832,16.386-2.325,23.894c3.505,7.506,2.765,15.8,3.598,16.333 c0.833,0.532,8.054-3.613,16.34-3.576c8.283,0.036,15.181-3.382,20.718-12.123C288.62,152.756,285.871,148.722,284.909,145.576 z"></path> <path fill="#FFAA0E" d="M277.912,139.608l-11.122-7.115c0,0-8.935,0.254-12.894,7.61c-3.961,7.356,2.61,16.041,2.866,20.309 l0,0l0,0l0,0l0,0c3.981-1.557,14.621,0.772,19.642-5.906C281.424,147.826,277.912,139.608,277.912,139.608z"></path> <path fill="#FFD30E" d="M273.553,145.403c-3.135,4.899-10.775,5.607-10.775,5.607s-2.557-7.233,0.578-12.133 c3.137-4.9,6.45-5.053,9.266-3.251C275.436,137.429,276.688,140.502,273.553,145.403z"></path> <g> <path fill="#7C8890" d="M259.056,123.306l-0.46-0.142c0,0-1.123,3.152-0.746,3.49c0.367,0.333,9.771,7.616,13.924,10.296 l2.5-3.906L259.056,123.306z"></path> <path fill="#677178" d="M289.711,142.922l-15.438-9.878l-2.5,3.906c0.037,0.022,0.074,0.048,0.109,0.07 c4.099,2.621,14.613,8.064,15.072,8.258c0.47,0.201,2.857-2.137,2.857-2.137L289.711,142.922z"></path> </g> <g> <path fill="#969B9E" d="M279.214,125.325l-5.901,9.223c0.036,0.021,0.072,0.048,0.108,0.069 c5.912,3.782,14.436,8.123,15.396,8.61c1.057,0.537,2.416-0.274,3.249-1.001c0.831-0.728,5.366-5.244,5.366-5.244 L279.214,125.325z"></path> <path fill="#ADB2B6" d="M260.995,113.667c0,0-2.201,6.01-2.512,7.07c-0.312,1.061-0.479,2.634,0.452,3.367 c0.841,0.666,8.479,6.654,14.377,10.442l5.901-9.223L260.995,113.667z"></path> </g> <g> <g> <path fill="#EE3F01" d="M272.809,69.648c0,0-29.998,5.566-35.338,14.147c-5.338,8.582-14.812,27.207-12.089,30.204 c2.724,2.994,23.74-9.86,36.442-5.334C274.527,113.192,272.809,69.648,272.809,69.648z"></path> <path fill="#CD3701" d="M272.809,69.648c0,0-4.406,0.816-10.139,2.308c-1.79,4.636-3.25,10.04-2.691,14.445 c1.254,9.869-3.867,13.713-7.701,15.046c-2.906,1.011-19.594,4.552-27.346,10.168c-0.096,1.098,0.033,1.926,0.45,2.385 c2.724,2.994,23.74-9.86,36.442-5.334C274.527,113.192,272.809,69.648,272.809,69.648z"></path> </g> <g> <path fill="#D33801" d="M332.451,107.812c0,0,7.516,29.57,1.96,38.015c-5.555,8.441-18.497,24.85-22.357,23.632 c-3.862-1.217-0.997-25.688-10.429-35.325C292.193,124.496,332.451,107.812,332.451,107.812z"></path> <path fill="#B23001" d="M332.451,107.812c0,0,1.104,4.343,2.151,10.174c-3.458,3.566-7.753,7.156-11.987,8.495 c-9.487,2.998-10.83,9.257-10.434,13.297c0.299,3.062,4.076,19.697,2.223,29.089c-0.955,0.548-1.76,0.778-2.351,0.592 c-3.862-1.217-0.997-25.688-10.429-35.325C292.193,124.496,332.451,107.812,332.451,107.812z"></path> </g> </g> <g> <path fill="#E5ECF2" d="M348.865,0.362c0,0-17.107,1.908-42.133,21.854c-25.025,19.947-38.15,40.112-40.986,59.094 c-2.833,18.979-3.541,25.377-4.572,28.104c-1.031,2.729-4.297,6.174,5.85,12.666c4.53,2.898,10.157,6.423,10.157,6.423 l81.077-126.71C358.258,1.792,354.54-0.967,348.865,0.362z"></path> <path fill="#C6CCD1" d="M361.305,57.135c7.624-31.078,2.19-47.411,2.19-47.411c-1.173-5.709-5.237-7.932-5.237-7.932 l-81.077,126.71c0,0,5.558,3.633,10.087,6.53c10.146,6.493,11.907,2.085,13.951,0.005c2.047-2.079,7.558-5.401,23.604-15.927 C340.87,108.582,353.679,88.215,361.305,57.135z"></path> </g> <g> <path fill="#EE3F01" d="M358.258,1.792c0,0-3.718-2.76-9.393-1.431c0,0-9.378,1.047-24.402,9.686 c7.811,1.688,15.445,4.768,22.553,9.315L358.258,1.792z"></path> <path fill="#CD3601" d="M363.495,9.724c-1.173-5.709-5.237-7.932-5.237-7.932l-11.242,17.57 c7.109,4.551,13.104,10.19,17.91,16.574C366.473,18.678,363.495,9.724,363.495,9.724z"></path> </g> <g> <path fill="#C6CCD1" d="M299.464,46.312c-7.601,11.875-4.134,27.664,7.743,35.265l27.52-43.009 C322.851,30.968,307.062,34.436,299.464,46.312z"></path> <path fill="#ADB2B6" d="M334.727,38.568l-27.52,43.009c11.879,7.6,27.666,4.134,35.266-7.744 C350.072,61.956,346.605,46.167,334.727,38.568z"></path> <circle fill="#494F58" cx="321.955" cy="58.53" r="25.531"></circle> <g> <circle fill="#21C8AD" cx="321.954" cy="58.53" r="17.844"></circle> <path fill="#1DB39A" d="M331.57,43.5L312.338,73.56c8.301,5.312,19.336,2.888,24.646-5.413 C342.295,59.847,339.873,48.812,331.57,43.5z"></path> <path fill="#1DAE97" d="M306.924,48.913c-0.215,0.338-0.414,0.679-0.604,1.026c5.527-7.503,16.004-9.529,23.969-4.434 l1.281-2.006C323.271,38.189,312.236,40.613,306.924,48.913z"></path> <path fill="#1BA28C" d="M331.57,43.5l-1.281,2.006c7.963,5.095,10.513,15.457,6.016,23.621 c0.235-0.319,0.465-0.642,0.68-0.979C342.295,59.847,339.873,48.812,331.57,43.5z"></path> </g> </g> <g> <circle fill="#FFFFFF" cx="321.06" cy="45.931" r="2.086"></circle> <path fill="#FFFFFF" d="M316.962,47.106c-0.331,0.517-1.017,0.668-1.533,0.338c-0.519-0.332-0.67-1.019-0.338-1.538 c0.331-0.514,1.019-0.666,1.535-0.336C317.143,45.901,317.293,46.589,316.962,47.106z"></path> </g> </g> </g> </g> <polygon fill="#E6E6E6" points="374.992,345.07 37.904,345.07 1.837,356.215 411.061,356.215 "></polygon> <g> <path fill="#C2C2C2" d="M412.897,366.429c0,3.262-2.642,5.902-5.905,5.902H5.904c-3.26,0-5.904-2.641-5.904-5.902v-6.873 c0-3.261,2.645-5.903,5.904-5.903h401.088c3.264,0,5.905,2.643,5.905,5.903V366.429z"></path> <path fill="#898989" d="M411.061,371.102c0,0.679-1.102,1.229-2.461,1.229H4.297c-1.358,0-2.46-0.55-2.46-1.229l0,0 c0-0.679,1.102-1.229,2.46-1.229H408.6C409.959,369.874,411.061,370.423,411.061,371.102L411.061,371.102z"></path> </g> </g> </g> </svg> 